inDegrees=no
num_controls=7
num_derivatives=13
num_iterations=54
num_multipliers=7
num_parameters=0
num_slacks=7
num_states=26
objective=0.427308
objective_accelerations=0.057158
objective_balance=0.001194
objective_effort=0.014815
objective_height=0.348162
objective_ligament=0.005979
solver_duration=752.604045
status=Solve_Succeeded
success=true
DataType=double
version=3
OpenSimVersion=4.5
endheader
time	/jointset/ground_pelvis/pelvis_tilt/value	/jointset/ground_pelvis/pelvis_tx/value	/jointset/ground_pelvis/pelvis_ty/value	/jointset/hip_l/hip_flexion_l/value	/jointset/hip_l/hip_adduction_l/value	/jointset/hip_l/hip_rotation_l/value	/jointset/back/lumbar_extension/value	/jointset/patellofemoral_l/patellar_flexion_l/value	/jointset/knee_l/knee_flexion_l/value	/jointset/knee_l/knee_adduction_l/value	/jointset/knee_l/knee_rotation_l/value	/jointset/ankle_l/ankle_angle_l/value	/jointset/subtalar_l/subtalar_angle_l/value	/jointset/ground_pelvis/pelvis_tilt/speed	/jointset/ground_pelvis/pelvis_tx/speed	/jointset/ground_pelvis/pelvis_ty/speed	/jointset/hip_l/hip_flexion_l/speed	/jointset/hip_l/hip_adduction_l/speed	/jointset/hip_l/hip_rotation_l/speed	/jointset/back/lumbar_extension/speed	/jointset/patellofemoral_l/patellar_flexion_l/speed	/jointset/knee_l/knee_flexion_l/speed	/jointset/knee_l/knee_adduction_l/speed	/jointset/knee_l/knee_rotation_l/speed	/jointset/ankle_l/ankle_angle_l/speed	/jointset/subtalar_l/subtalar_angle_l/speed	/forceset/tau_hip_flexion_l	/forceset/tau_hip_adduction_l	/forceset/tau_hip_rotation_l	/forceset/tau_knee_flexion_l	/forceset/tau_ankle_angle_l	/forceset/tau_subtalar_angle_l	/forceset/tau_lumbar_extension	lambda_cid13_p0	lambda_cid13_p1	lambda_cid13_p2	lambda_cid13_p3	lambda_cid13_p4	lambda_cid13_p5	lambda_cid14_p0	/jointset/ground_pelvis/pelvis_tilt/accel	/jointset/ground_pelvis/pelvis_tx/accel	/jointset/ground_pelvis/pelvis_ty/accel	/jointset/hip_l/hip_flexion_l/accel	/jointset/hip_l/hip_adduction_l/accel	/jointset/hip_l/hip_rotation_l/accel	/jointset/back/lumbar_extension/accel	/jointset/patellofemoral_l/patellar_flexion_l/accel	/jointset/knee_l/knee_flexion_l/accel	/jointset/knee_l/knee_adduction_l/accel	/jointset/knee_l/knee_rotation_l/accel	/jointset/ankle_l/ankle_angle_l/accel	/jointset/subtalar_l/subtalar_angle_l/accel	gamma_cid13_p0	gamma_cid13_p1	gamma_cid13_p2	gamma_cid13_p3	gamma_cid13_p4	gamma_cid13_p5	gamma_cid14_p0
0.5	-0.1891478579458733	0.03146364978561214	0.7779147171411172	0.950338607895007	-0.3626490660082632	-0.008820884064685793	-0.3978487689721322	0.9438756832883078	0.9438756832881041	-0.03254184736268886	-0.1744239941712572	0.3100788338309793	0.1630796508013841	-0.6904211905646356	-0.1649690150950495	-0.5039564735746945	2.293254072373948	0.04276623061934141	0.5133209634742759	-0.3073945140419249	1.968689794080668	1.968689794080875	0.3300870738337693	0.002712944366148919	0.5310105368786047	0.2793827188439277	-0.08610887503645853	0.05898021666051331	-0.001511775111030608	-0.2175802784487703	0.03631362945308562	-0.009944665451912129	0.1052915993158868	-14.89025109300123	11.55765860558207	-7.413921571396337	-4.827376841718342	-438.6186104569459	-38.43119236715163	-5.376984378770834	0.1372007269867435	0.4442408607653187	-0.4963425616173407	-0.9840274975306443	0.06028970281404356	-0.75416414652047	1.302605709944878	-1.407315667167072	-1.407315667167067	-0.2030021752016881	0.00860679581027426	-0.716279028126249	0.1085883028191591	-4.559194880581871e-07	-4.460010665732472e-07	6.328464705350914e-06	3.302618722001807e-07	-1.286012016400294e-06	-1.41377236379732e-06	-7.802058114206041e-07
0.51	-0.1960432465056468	0.02983635867804757	0.7728515008825645	0.9732174895399559	-0.3622210948549096	-0.003720061578596247	-0.4008586644809187	0.9634889056967414	0.9634889056968245	-0.02926039921826576	-0.1743968182064917	0.3153514422808175	0.1658743326625146	-0.6885560486313106	-0.1604779620951964	-0.5085797799618882	2.282241268133965	0.04282214947882936	0.5067562796393884	-0.2945872064903923	1.953704891032574	1.953704891032726	0.3262327503092368	0.002665836175962284	0.5234340407503214	0.2795025989158318	-0.09040077694049718	0.06020263520013784	-0.002047976416612884	-0.2196412819992269	0.03454515859777452	-0.009268514176978248	0.108539584577947	-15.61393089499173	11.54926318386577	-7.593682429015693	-4.541670102036401	-441.4385762290152	-38.42988105769799	-4.725973057086318	0.2262172304181614	0.4532935164887186	-0.4295257831364345	-1.202105347957733	-0.02358896044178295	-0.6214742181193764	1.269400461500321	-1.581393079340202	-1.581393079348437	-0.4720800874485947	-0.01864634368456309	-0.7899206552911011	-0.04467720890606244	-4.350209210578941e-07	-5.736772140635255e-08	6.328020143953034e-06	3.774260096163461e-07	-1.235796078031247e-06	-1.034776336214605e-06	-7.542370759092142e-07
0.52	-0.2029169743853159	0.02825432929985991	0.7677452113389659	0.995977803450352	-0.361792930900559	0.001312343325918851	-0.4037405654774422	0.9829448159835619	0.98294481598391	-0.02601658083842196	-0.1743715686670366	0.3205459686193505	0.1686685403107074	-0.6860890545414495	-0.1559166692196651	-0.5125711305837576	2.269540525464959	0.04280479082000635	0.4996374471586457	-0.2817956115891268	1.937227369756087	1.937227369756183	0.3225611209299127	0.002327659295716862	0.5153941146175663	0.279287876256446	-0.09469267884453068	0.06142505373973296	-0.002584177722576135	-0.2217022855496911	0.03277668774245394	-0.008592362902083666	0.1117875698400169	-16.33214369256202	11.53080357771325	-7.761433115857225	-4.303847599721333	-444.1812232322861	-38.54307087923717	-4.122973966606822	0.2575711582940016	0.458288835900973	-0.3699514085524628	-1.321615183335205	0.04563419915181151	-0.86499387569161	1.299463179891496	-1.705839312845914	-1.705839312845905	-0.1664633461599743	-0.0496069422015905	-0.8089650290206185	0.0416677565611128	-4.127395494203074e-07	4.180939582215305e-07	6.35477116321199e-06	4.394192172532555e-07	-1.198693997166407e-06	-6.145418540250755e-07	-7.220824267327385e-07
0.53	-0.2097633305734117	0.02671840073388218	0.762602267511953	1.01860270573366	-0.361365057384699	0.006272576156629492	-0.4064942009879371	1.002228494750715	1.00222849475112	-0.02280957473805464	-0.1743498087619887	0.3256581073427538	0.1714592800620227	-0.6830975432039552	-0.1512433875238514	-0.5158986818387031	2.255132701614813	0.04276168810474287	0.492392896802651	-0.2689077364195223	1.91924346798523	1.919243467985247	0.3188045091497231	0.002019273523645913	0.5069805471006276	0.2788110862614125	-0.09879479846283999	0.06221784091346347	-0.002959705693211695	-0.2247140336872945	0.03209535165673433	-0.008072243693944756	0.1149776737946009	-16.73616897304566	11.57260702894918	-7.993062833203165	-4.383996184197451	-447.347980725357	-38.71593148670166	-3.567209482122587	0.3326219119866887	0.4757907005096119	-0.29654987816791	-1.546491626665848	-0.03154343829830635	-0.6573060778288466	1.287012799012899	-1.884261924151566	-1.884261924163622	-0.4854626554594575	-0.02097843537122827	-0.8654922279624316	-0.1005662846706003	-3.928029172042942e-07	6.675253789860489e-07	6.275705584885203e-06	4.656383221584945e-07	-1.145263191228073e-06	-2.946768888630391e-07	-7.004612251643619e-07
0.54	-0.2165772354900403	0.02522999355767985	0.7574295695935496	1.041074304650299	-0.3609380670822853	0.01115973939132998	-0.4091182451240323	1.021324415237186	1.021324415237612	-0.01964117526788187	-0.1743310375227397	0.3306845224680008	0.1742436091319601	-0.6795988002460618	-0.1464123912645849	-0.5185219488617643	2.238879852132198	0.04262814813217027	0.485023527955648	-0.2558773367091811	1.899675713616527	1.899675713616463	0.3148397949090865	0.001729926125116882	0.4982493949864107	0.2780057399809728	-0.1028969180811333	0.06301062808716835	-0.00333523366454259	-0.2277257818249071	0.03141401557100952	-0.007552124485831676	0.1181677777492063	-17.13578229307774	11.60591864923624	-8.214518177428916	-4.513604156054391	-450.4519773055486	-38.99753447658819	-3.057657228775695	0.3590174823738324	0.4898317485915628	-0.2290945621755953	-1.690620309829165	0.02754674768993494	-0.8899575738933352	1.327968088038878	-2.022609832415215	-2.022609832415234	-0.2080838382493365	-0.04579926749330879	-0.8724819484762151	-0.02404350052016425	-3.754604647738518e-07	6.66880768667693e-07	6.079566324123127e-06	4.522775687223105e-07	-1.073766561804171e-06	-8.585904892291158e-08	-6.904940507368611e-07
0.55	-0.2233534533400034	0.02379029489861112	0.7522341195753164	1.063374728698053	-0.3605125946807987	0.01597181247773819	-0.411611673663251	1.040217146334977	1.040217146335248	-0.01651243672724254	-0.1743156137440726	0.3356217871862533	0.1770184223004533	-0.6755429136684211	-0.1415404133982714	-0.5204532220128351	2.220945092529801	0.04247087217460056	0.4773257136033646	-0.2428238633273111	1.878630481883865	1.878630481883805	0.3109374826512782	0.001328504878890471	0.4891143726574388	0.2769059939881742	-0.1076590649074961	0.06440981161985475	-0.00360831144240975	-0.2292983352822683	0.02837385949208713	-0.007341277667793414	0.1216433304040788	-18.33879369588597	11.86685485288096	-8.418167933864273	-3.719762078390015	-453.4754709038284	-38.71514586179863	-2.59304525047375	0.4441381729061804	0.4840088763215671	-0.1581257294514911	-1.88392128850452	-0.03763484412849302	-0.7201446435136599	1.291713134309214	-2.181346440802325	-2.181346440801688	-0.4767787598222794	-0.04009406871119103	-0.9473697836595786	-0.1613935707872189	-3.36188799313666e-07	6.519314085639848e-07	5.553015475706827e-06	4.165007781317896e-07	-9.625834050190921e-07	6.780559900437258e-08	-6.336198865942171e-07
